<mxfile host="app.diagrams.net" modified="2024-01-26T08:55:02.474Z" agent="Mozilla/5.0 (Macintosh; Intel Mac OS X 10_15_7) AppleWebKit/605.1.15 (KHTML, like Gecko) Version/17.1 Safari/605.1.15" etag="-P2nOa3HXWe1VZ8MA44_" version="22.1.18" type="github" pages="2">
  <diagram name="Page-1" id="cmbC7FRgtakm0xJjbYf5">
    <mxGraphModel dx="579" dy="2122" grid="1" gridSize="10" guides="1" tooltips="1" connect="1" arrows="1" fold="1" page="1" pageScale="1" pageWidth="827" pageHeight="1169" math="0" shadow="0">
      <root>
        <mxCell id="0" />
        <mxCell id="1" parent="0" />
        <mxCell id="aPB_nftNZLgnHfdCOMya-115" value="" style="shape=mxgraph.signs.transportation.ferry;html=1;pointerEvents=1;fillColor=#fff2cc;strokeColor=#d6b656;verticalLabelPosition=bottom;verticalAlign=top;align=center;sketch=0;" vertex="1" parent="1">
          <mxGeometry x="1279.9999999999998" y="91" width="140.61" height="99" as="geometry" />
        </mxCell>
        <mxCell id="aPB_nftNZLgnHfdCOMya-1" value="" style="shape=mxgraph.signs.transportation.car_3;html=1;pointerEvents=1;fillColor=#fff2cc;strokeColor=#d6b656;verticalLabelPosition=bottom;verticalAlign=top;align=center;sketch=0;flipH=1;movable=1;resizable=1;rotatable=1;deletable=1;editable=1;locked=0;connectable=1;" vertex="1" parent="1">
          <mxGeometry x="1304" y="320" width="338.68" height="130" as="geometry" />
        </mxCell>
        <mxCell id="aPB_nftNZLgnHfdCOMya-2" value="" style="ellipse;shape=cloud;whiteSpace=wrap;html=1;" vertex="1" parent="1">
          <mxGeometry x="829" y="10" width="360" height="230" as="geometry" />
        </mxCell>
        <mxCell id="aPB_nftNZLgnHfdCOMya-3" value="" style="fontColor=#0066CC;verticalAlign=top;verticalLabelPosition=bottom;labelPosition=center;align=center;html=1;outlineConnect=0;fillColor=#CCCCCC;strokeColor=#6881B3;gradientColor=none;gradientDirection=north;strokeWidth=2;shape=mxgraph.networks.satellite;" vertex="1" parent="1">
          <mxGeometry x="1542.68" y="50" width="100" height="100" as="geometry" />
        </mxCell>
        <mxCell id="aPB_nftNZLgnHfdCOMya-4" value="" style="fontColor=#0066CC;verticalAlign=top;verticalLabelPosition=bottom;labelPosition=center;align=center;html=1;outlineConnect=0;fillColor=#CCCCCC;strokeColor=#6881B3;gradientColor=none;gradientDirection=north;strokeWidth=2;shape=mxgraph.networks.laptop;" vertex="1" parent="1">
          <mxGeometry x="879" y="340" width="220" height="190" as="geometry" />
        </mxCell>
        <mxCell id="aPB_nftNZLgnHfdCOMya-5" value="" style="fontColor=#0066CC;verticalAlign=top;verticalLabelPosition=bottom;labelPosition=center;align=center;html=1;outlineConnect=0;fillColor=#CCCCCC;strokeColor=#6881B3;gradientColor=none;gradientDirection=north;strokeWidth=2;shape=mxgraph.networks.mobile;rotation=-180;" vertex="1" parent="1">
          <mxGeometry x="829" y="311.43" width="71" height="130" as="geometry" />
        </mxCell>
        <mxCell id="aPB_nftNZLgnHfdCOMya-6" value="" style="fontColor=#0066CC;verticalAlign=top;verticalLabelPosition=bottom;labelPosition=center;align=center;html=1;outlineConnect=0;fillColor=#CCCCCC;strokeColor=#6881B3;gradientColor=none;gradientDirection=north;strokeWidth=2;shape=mxgraph.networks.radio_tower;" vertex="1" parent="1">
          <mxGeometry x="1240" y="185.83" width="55" height="100" as="geometry" />
        </mxCell>
        <mxCell id="aPB_nftNZLgnHfdCOMya-8" value="" style="image;sketch=0;aspect=fixed;html=1;points=[];align=center;fontSize=12;image=img/lib/mscae/Database_General.svg;" vertex="1" parent="1">
          <mxGeometry x="939" y="100" width="30.4" height="40" as="geometry" />
        </mxCell>
        <mxCell id="aPB_nftNZLgnHfdCOMya-12" value="" style="fontColor=#0066CC;verticalAlign=top;verticalLabelPosition=bottom;labelPosition=center;align=center;html=1;outlineConnect=0;fillColor=#CCCCCC;strokeColor=#6881B3;gradientColor=none;gradientDirection=north;strokeWidth=2;shape=mxgraph.networks.mobile;rotation=-180;" vertex="1" parent="1">
          <mxGeometry x="1489" y="333" width="20" height="40" as="geometry" />
        </mxCell>
        <mxCell id="aPB_nftNZLgnHfdCOMya-13" value="" style="shape=trapezoid;perimeter=trapezoidPerimeter;whiteSpace=wrap;html=1;fixedSize=1;flipH=0;flipV=1;" vertex="1" parent="1">
          <mxGeometry x="1419" y="305" width="70" height="10" as="geometry" />
        </mxCell>
        <mxCell id="aPB_nftNZLgnHfdCOMya-14" value="" style="verticalLabelPosition=bottom;verticalAlign=top;html=1;shape=mxgraph.basic.obtuse_triangle;dx=0.26;perimeterSpacing=0;" vertex="1" parent="1">
          <mxGeometry x="1359" y="305" width="59.19" height="15" as="geometry" />
        </mxCell>
        <mxCell id="aPB_nftNZLgnHfdCOMya-33" value="" style="group;spacing=0;" vertex="1" connectable="0" parent="1">
          <mxGeometry x="1349" y="330" width="100" height="70" as="geometry" />
        </mxCell>
        <mxCell id="aPB_nftNZLgnHfdCOMya-16" value="" style="image;sketch=0;aspect=fixed;html=1;points=[];align=center;fontSize=12;image=img/lib/mscae/Local_Network_Gateways.svg;" vertex="1" parent="aPB_nftNZLgnHfdCOMya-33">
          <mxGeometry x="37" y="9.5" width="31.07" height="31.07" as="geometry" />
        </mxCell>
        <mxCell id="aPB_nftNZLgnHfdCOMya-28" value="MOVE Gateway" style="verticalLabelPosition=bottom;verticalAlign=top;html=1;shape=mxgraph.basic.rounded_frame;dx=6.4;whiteSpace=wrap;" vertex="1" parent="aPB_nftNZLgnHfdCOMya-33">
          <mxGeometry width="100" height="70" as="geometry" />
        </mxCell>
        <mxCell id="aPB_nftNZLgnHfdCOMya-29" value="" style="image;sketch=0;aspect=fixed;html=1;points=[];align=center;fontSize=12;image=img/lib/mscae/Event_Hubs.svg;" vertex="1" parent="aPB_nftNZLgnHfdCOMya-33">
          <mxGeometry x="14" y="38.5" width="19.43" height="20.24" as="geometry" />
        </mxCell>
        <mxCell id="aPB_nftNZLgnHfdCOMya-30" value="" style="image;sketch=0;aspect=fixed;html=1;points=[];align=center;fontSize=12;image=img/lib/mscae/Analysis_Services.svg;" vertex="1" parent="aPB_nftNZLgnHfdCOMya-33">
          <mxGeometry x="62" y="37.5" width="25.95" height="20.24" as="geometry" />
        </mxCell>
        <mxCell id="aPB_nftNZLgnHfdCOMya-32" value="" style="group" vertex="1" connectable="0" parent="aPB_nftNZLgnHfdCOMya-33">
          <mxGeometry x="10" y="7.5" width="38" height="36.93" as="geometry" />
        </mxCell>
        <mxCell id="aPB_nftNZLgnHfdCOMya-22" value="" style="verticalLabelPosition=bottom;verticalAlign=top;html=1;shape=mxgraph.basic.frame_corner;dx=4.27;whiteSpace=wrap;rotation=-180;fillColor=#FF8000;strokeColor=none;" vertex="1" parent="aPB_nftNZLgnHfdCOMya-32">
          <mxGeometry x="-2.9999999999998224" y="-4.19845491705928e-14" width="17.137254901960723" height="17.233999999999998" as="geometry" />
        </mxCell>
        <mxCell id="aPB_nftNZLgnHfdCOMya-24" value="" style="verticalLabelPosition=bottom;verticalAlign=top;html=1;shape=mxgraph.basic.frame_corner;dx=3.73;whiteSpace=wrap;rotation=0;fillColor=#FF8000;strokeColor=none;" vertex="1" parent="aPB_nftNZLgnHfdCOMya-32">
          <mxGeometry x="-2.6274509803920525" y="19.344285714285682" width="18.25490196078425" height="17.585714285714285" as="geometry" />
        </mxCell>
        <mxCell id="aPB_nftNZLgnHfdCOMya-26" value="" style="verticalLabelPosition=bottom;verticalAlign=top;html=1;shape=mxgraph.basic.frame_corner;dx=3.87;whiteSpace=wrap;rotation=0;fillColor=#FF8000;strokeColor=none;" vertex="1" parent="aPB_nftNZLgnHfdCOMya-32">
          <mxGeometry x="16.003911879761255" y="0.7385999999999581" width="18.996088120238767" height="17.201994" as="geometry" />
        </mxCell>
        <mxCell id="aPB_nftNZLgnHfdCOMya-91" value="" style="image;sketch=0;aspect=fixed;html=1;points=[];align=center;fontSize=12;image=img/lib/mscae/Device_Provisioning_Services.svg;" vertex="1" parent="aPB_nftNZLgnHfdCOMya-33">
          <mxGeometry x="41" y="44.43000000000001" width="18" height="18.75" as="geometry" />
        </mxCell>
        <mxCell id="aPB_nftNZLgnHfdCOMya-34" value="" style="image;sketch=0;aspect=fixed;html=1;points=[];align=center;fontSize=12;image=img/lib/mscae/Event_Hub_Clusters.svg;" vertex="1" parent="1">
          <mxGeometry x="1059" y="130.26" width="50" height="48" as="geometry" />
        </mxCell>
        <mxCell id="aPB_nftNZLgnHfdCOMya-36" value="" style="shape=mxgraph.signs.transportation.tram_2;html=1;pointerEvents=1;fillColor=#fff2cc;strokeColor=#d6b656;verticalLabelPosition=bottom;verticalAlign=top;align=center;sketch=0;" vertex="1" parent="1">
          <mxGeometry x="1519" y="260" width="134" height="70" as="geometry" />
        </mxCell>
        <mxCell id="aPB_nftNZLgnHfdCOMya-38" value="" style="image;sketch=0;aspect=fixed;html=1;points=[];align=center;fontSize=12;image=img/lib/mscae/Local_Network_Gateways.svg;" vertex="1" parent="1">
          <mxGeometry x="1601.2" y="295.42857142857144" width="17.3992" height="17.3992" as="geometry" />
        </mxCell>
        <mxCell id="aPB_nftNZLgnHfdCOMya-39" value="&lt;font style=&quot;font-size: 7px;&quot;&gt;MOVE Gateway&lt;/font&gt;" style="verticalLabelPosition=bottom;verticalAlign=top;html=1;shape=mxgraph.basic.rounded_frame;dx=3.75;whiteSpace=wrap;spacing=-7;" vertex="1" parent="1">
          <mxGeometry x="1579" y="290" width="60" height="40" as="geometry" />
        </mxCell>
        <mxCell id="aPB_nftNZLgnHfdCOMya-40" value="" style="image;sketch=0;aspect=fixed;html=1;points=[];align=center;fontSize=12;image=img/lib/mscae/Event_Hubs.svg;" vertex="1" parent="1">
          <mxGeometry x="1587.4" y="312" width="10.8808" height="11.334399999999999" as="geometry" />
        </mxCell>
        <mxCell id="aPB_nftNZLgnHfdCOMya-41" value="" style="image;sketch=0;aspect=fixed;html=1;points=[];align=center;fontSize=12;image=img/lib/mscae/Analysis_Services.svg;" vertex="1" parent="1">
          <mxGeometry x="1616.2" y="311.42857142857144" width="14.532" height="11.334399999999999" as="geometry" />
        </mxCell>
        <mxCell id="aPB_nftNZLgnHfdCOMya-42" value="" style="group" vertex="1" connectable="0" parent="1">
          <mxGeometry x="1585" y="294.2857142857143" width="22.799999999999997" height="21.102857142857147" as="geometry" />
        </mxCell>
        <mxCell id="aPB_nftNZLgnHfdCOMya-43" value="" style="verticalLabelPosition=bottom;verticalAlign=top;html=1;shape=mxgraph.basic.frame_corner;dx=2.43;whiteSpace=wrap;rotation=-180;fillColor=#FF8000;strokeColor=none;" vertex="1" parent="aPB_nftNZLgnHfdCOMya-42">
          <mxGeometry x="-1.7999999999998935" y="-2.3991170954624463e-14" width="10.282352941176434" height="9.848" as="geometry" />
        </mxCell>
        <mxCell id="aPB_nftNZLgnHfdCOMya-44" value="" style="verticalLabelPosition=bottom;verticalAlign=top;html=1;shape=mxgraph.basic.frame_corner;dx=2.35;whiteSpace=wrap;rotation=0;fillColor=#FF8000;strokeColor=none;" vertex="1" parent="aPB_nftNZLgnHfdCOMya-42">
          <mxGeometry x="-1.5764705882352312" y="11.053877551020392" width="10.95294117647055" height="10.048979591836737" as="geometry" />
        </mxCell>
        <mxCell id="aPB_nftNZLgnHfdCOMya-45" value="" style="verticalLabelPosition=bottom;verticalAlign=top;html=1;shape=mxgraph.basic.frame_corner;dx=2.49;whiteSpace=wrap;rotation=0;fillColor=#FF8000;strokeColor=none;" vertex="1" parent="aPB_nftNZLgnHfdCOMya-42">
          <mxGeometry x="9.602347127856753" y="0.422057142857119" width="11.39765287214326" height="9.829710857142858" as="geometry" />
        </mxCell>
        <mxCell id="aPB_nftNZLgnHfdCOMya-46" value="" style="image;sketch=0;aspect=fixed;html=1;points=[];align=center;fontSize=12;image=img/lib/mscae/Local_Network_Gateways.svg;" vertex="1" parent="1">
          <mxGeometry x="1341.2" y="102.92857142857144" width="17.3992" height="17.3992" as="geometry" />
        </mxCell>
        <mxCell id="aPB_nftNZLgnHfdCOMya-47" value="&lt;font style=&quot;font-size: 7px;&quot;&gt;MOVE Gateway&lt;/font&gt;" style="verticalLabelPosition=bottom;verticalAlign=top;html=1;shape=mxgraph.basic.rounded_frame;dx=3.75;whiteSpace=wrap;spacing=-7;" vertex="1" parent="1">
          <mxGeometry x="1319" y="97.5" width="60" height="40" as="geometry" />
        </mxCell>
        <mxCell id="aPB_nftNZLgnHfdCOMya-48" value="" style="image;sketch=0;aspect=fixed;html=1;points=[];align=center;fontSize=12;image=img/lib/mscae/Event_Hubs.svg;" vertex="1" parent="1">
          <mxGeometry x="1327.4" y="119.5" width="10.8808" height="11.334399999999999" as="geometry" />
        </mxCell>
        <mxCell id="aPB_nftNZLgnHfdCOMya-49" value="" style="image;sketch=0;aspect=fixed;html=1;points=[];align=center;fontSize=12;image=img/lib/mscae/Analysis_Services.svg;" vertex="1" parent="1">
          <mxGeometry x="1356.2" y="118.92857142857144" width="14.532" height="11.334399999999999" as="geometry" />
        </mxCell>
        <mxCell id="aPB_nftNZLgnHfdCOMya-50" value="" style="group" vertex="1" connectable="0" parent="1">
          <mxGeometry x="1325" y="101.78571428571428" width="22.799999999999997" height="21.102857142857147" as="geometry" />
        </mxCell>
        <mxCell id="aPB_nftNZLgnHfdCOMya-51" value="" style="verticalLabelPosition=bottom;verticalAlign=top;html=1;shape=mxgraph.basic.frame_corner;dx=2.43;whiteSpace=wrap;rotation=-180;fillColor=#FF8000;strokeColor=none;" vertex="1" parent="aPB_nftNZLgnHfdCOMya-50">
          <mxGeometry x="-1.7999999999998935" y="-2.3991170954624463e-14" width="10.282352941176434" height="9.848" as="geometry" />
        </mxCell>
        <mxCell id="aPB_nftNZLgnHfdCOMya-52" value="" style="verticalLabelPosition=bottom;verticalAlign=top;html=1;shape=mxgraph.basic.frame_corner;dx=2.35;whiteSpace=wrap;rotation=0;fillColor=#FF8000;strokeColor=none;" vertex="1" parent="aPB_nftNZLgnHfdCOMya-50">
          <mxGeometry x="-1.5764705882352312" y="11.053877551020392" width="10.95294117647055" height="10.048979591836737" as="geometry" />
        </mxCell>
        <mxCell id="aPB_nftNZLgnHfdCOMya-53" value="" style="verticalLabelPosition=bottom;verticalAlign=top;html=1;shape=mxgraph.basic.frame_corner;dx=2.49;whiteSpace=wrap;rotation=0;fillColor=#FF8000;strokeColor=none;" vertex="1" parent="aPB_nftNZLgnHfdCOMya-50">
          <mxGeometry x="9.602347127856753" y="0.422057142857119" width="11.39765287214326" height="9.829710857142858" as="geometry" />
        </mxCell>
        <mxCell id="aPB_nftNZLgnHfdCOMya-54" value="" style="html=1;outlineConnect=0;fillColor=#CCCCCC;strokeColor=#6881B3;gradientColor=none;gradientDirection=north;strokeWidth=2;shape=mxgraph.networks.comm_link_edge;html=1;rounded=0;" edge="1" parent="1">
          <mxGeometry width="100" height="100" relative="1" as="geometry">
            <mxPoint x="1359" y="304.29" as="sourcePoint" />
            <mxPoint x="1299" y="220" as="targetPoint" />
          </mxGeometry>
        </mxCell>
        <mxCell id="aPB_nftNZLgnHfdCOMya-55" value="" style="html=1;outlineConnect=0;fillColor=#CCCCCC;strokeColor=#6881B3;gradientColor=none;gradientDirection=north;strokeWidth=2;shape=mxgraph.networks.comm_link_edge;html=1;rounded=0;" edge="1" parent="1">
          <mxGeometry width="100" height="100" relative="1" as="geometry">
            <mxPoint x="1429" y="305" as="sourcePoint" />
            <mxPoint x="1539" y="140" as="targetPoint" />
          </mxGeometry>
        </mxCell>
        <mxCell id="aPB_nftNZLgnHfdCOMya-56" value="" style="html=1;outlineConnect=0;fillColor=#CCCCCC;strokeColor=#6881B3;gradientColor=none;gradientDirection=north;strokeWidth=2;shape=mxgraph.networks.comm_link_edge;html=1;rounded=0;" edge="1" parent="1">
          <mxGeometry width="100" height="100" relative="1" as="geometry">
            <mxPoint x="1429" y="110" as="sourcePoint" />
            <mxPoint x="1539" y="130" as="targetPoint" />
          </mxGeometry>
        </mxCell>
        <mxCell id="aPB_nftNZLgnHfdCOMya-57" value="" style="html=1;outlineConnect=0;fillColor=#CCCCCC;strokeColor=#6881B3;gradientColor=none;gradientDirection=north;strokeWidth=2;shape=mxgraph.networks.comm_link_edge;html=1;rounded=0;entryX=0.821;entryY=0.286;entryDx=0;entryDy=0;entryPerimeter=0;" edge="1" parent="1" target="aPB_nftNZLgnHfdCOMya-36">
          <mxGeometry width="100" height="100" relative="1" as="geometry">
            <mxPoint x="1569" y="160" as="sourcePoint" />
            <mxPoint x="1609" y="250" as="targetPoint" />
          </mxGeometry>
        </mxCell>
        <mxCell id="aPB_nftNZLgnHfdCOMya-58" value="" style="html=1;outlineConnect=0;fillColor=#CCCCCC;strokeColor=#6881B3;gradientColor=none;gradientDirection=north;strokeWidth=2;shape=mxgraph.networks.comm_link_edge;html=1;rounded=0;entryX=-0.017;entryY=0.292;entryDx=0;entryDy=0;entryPerimeter=0;" edge="1" parent="1" target="aPB_nftNZLgnHfdCOMya-36">
          <mxGeometry width="100" height="100" relative="1" as="geometry">
            <mxPoint x="1299" y="210" as="sourcePoint" />
            <mxPoint x="1549" y="140" as="targetPoint" />
            <Array as="points">
              <mxPoint x="1410" y="240" />
            </Array>
          </mxGeometry>
        </mxCell>
        <mxCell id="aPB_nftNZLgnHfdCOMya-61" value="" style="endArrow=none;html=1;rounded=0;entryX=0.55;entryY=0.95;entryDx=0;entryDy=0;entryPerimeter=0;exitX=0.5;exitY=1;exitDx=0;exitDy=0;exitPerimeter=0;" edge="1" parent="1" source="aPB_nftNZLgnHfdCOMya-6" target="aPB_nftNZLgnHfdCOMya-2">
          <mxGeometry width="50" height="50" relative="1" as="geometry">
            <mxPoint x="1279" y="210" as="sourcePoint" />
            <mxPoint x="1329" y="160" as="targetPoint" />
            <Array as="points">
              <mxPoint x="1268" y="300" />
              <mxPoint x="1027" y="300" />
            </Array>
          </mxGeometry>
        </mxCell>
        <mxCell id="aPB_nftNZLgnHfdCOMya-62" value="" style="endArrow=none;html=1;rounded=0;entryX=0.58;entryY=0.3;entryDx=0;entryDy=0;entryPerimeter=0;exitX=0.4;exitY=0.1;exitDx=0;exitDy=0;exitPerimeter=0;" edge="1" parent="1" source="aPB_nftNZLgnHfdCOMya-2" target="aPB_nftNZLgnHfdCOMya-3">
          <mxGeometry width="50" height="50" relative="1" as="geometry">
            <mxPoint x="1279" y="210" as="sourcePoint" />
            <mxPoint x="1329" y="160" as="targetPoint" />
            <Array as="points">
              <mxPoint x="973" />
              <mxPoint x="1599" />
            </Array>
          </mxGeometry>
        </mxCell>
        <mxCell id="aPB_nftNZLgnHfdCOMya-63" value="" style="endArrow=classic;startArrow=classic;html=1;rounded=0;entryX=0.31;entryY=0.8;entryDx=0;entryDy=0;entryPerimeter=0;" edge="1" parent="1" target="aPB_nftNZLgnHfdCOMya-2">
          <mxGeometry width="50" height="50" relative="1" as="geometry">
            <mxPoint x="869" y="305" as="sourcePoint" />
            <mxPoint x="919" y="255" as="targetPoint" />
          </mxGeometry>
        </mxCell>
        <mxCell id="aPB_nftNZLgnHfdCOMya-64" value="" style="endArrow=classic;startArrow=classic;html=1;rounded=0;entryX=0.487;entryY=0.957;entryDx=0;entryDy=0;entryPerimeter=0;" edge="1" parent="1" source="aPB_nftNZLgnHfdCOMya-4" target="aPB_nftNZLgnHfdCOMya-2">
          <mxGeometry width="50" height="50" relative="1" as="geometry">
            <mxPoint x="959" y="250" as="sourcePoint" />
            <mxPoint x="1009" y="200" as="targetPoint" />
          </mxGeometry>
        </mxCell>
        <mxCell id="aPB_nftNZLgnHfdCOMya-66" value="" style="image;sketch=0;aspect=fixed;html=1;points=[];align=center;fontSize=12;image=img/lib/mscae/Bot_Services.svg;" vertex="1" parent="1">
          <mxGeometry x="1059" y="70" width="39" height="39" as="geometry" />
        </mxCell>
        <mxCell id="aPB_nftNZLgnHfdCOMya-76" value="" style="group" vertex="1" connectable="0" parent="1">
          <mxGeometry x="929" y="60" width="190" height="130" as="geometry" />
        </mxCell>
        <mxCell id="aPB_nftNZLgnHfdCOMya-69" value="MOVE Cloud Services" style="verticalLabelPosition=bottom;verticalAlign=top;html=1;shape=mxgraph.basic.rounded_frame;dx=6.4;whiteSpace=wrap;" vertex="1" parent="aPB_nftNZLgnHfdCOMya-76">
          <mxGeometry width="190" height="130" as="geometry" />
        </mxCell>
        <mxCell id="aPB_nftNZLgnHfdCOMya-72" value="" style="group" vertex="1" connectable="0" parent="aPB_nftNZLgnHfdCOMya-76">
          <mxGeometry x="10" y="7.5" width="38" height="36.93" as="geometry" />
        </mxCell>
        <mxCell id="aPB_nftNZLgnHfdCOMya-73" value="" style="verticalLabelPosition=bottom;verticalAlign=top;html=1;shape=mxgraph.basic.frame_corner;dx=4.27;whiteSpace=wrap;rotation=-180;fillColor=#FF8000;strokeColor=none;" vertex="1" parent="aPB_nftNZLgnHfdCOMya-72">
          <mxGeometry x="-2.9999999999998224" y="-4.19845491705928e-14" width="17.137254901960723" height="17.233999999999998" as="geometry" />
        </mxCell>
        <mxCell id="aPB_nftNZLgnHfdCOMya-74" value="" style="verticalLabelPosition=bottom;verticalAlign=top;html=1;shape=mxgraph.basic.frame_corner;dx=3.73;whiteSpace=wrap;rotation=0;fillColor=#FF8000;strokeColor=none;" vertex="1" parent="aPB_nftNZLgnHfdCOMya-72">
          <mxGeometry x="-2.6274509803920525" y="19.344285714285682" width="18.25490196078425" height="17.585714285714285" as="geometry" />
        </mxCell>
        <mxCell id="aPB_nftNZLgnHfdCOMya-75" value="" style="verticalLabelPosition=bottom;verticalAlign=top;html=1;shape=mxgraph.basic.frame_corner;dx=3.87;whiteSpace=wrap;rotation=0;fillColor=#FF8000;strokeColor=none;" vertex="1" parent="aPB_nftNZLgnHfdCOMya-72">
          <mxGeometry x="16.003911879761255" y="0.7385999999999581" width="18.996088120238767" height="17.201994" as="geometry" />
        </mxCell>
        <mxCell id="aPB_nftNZLgnHfdCOMya-65" value="" style="image;sketch=0;aspect=fixed;html=1;points=[];align=center;fontSize=12;image=img/lib/mscae/Machine_Learning_Service_Workspaces.svg;" vertex="1" parent="aPB_nftNZLgnHfdCOMya-76">
          <mxGeometry x="48" y="44.89" width="37" height="40.22" as="geometry" />
        </mxCell>
        <mxCell id="aPB_nftNZLgnHfdCOMya-96" value="" style="image;sketch=0;aspect=fixed;html=1;points=[];align=center;fontSize=12;image=img/lib/mscae/Security_Center.svg;" vertex="1" parent="aPB_nftNZLgnHfdCOMya-76">
          <mxGeometry x="101" y="41.43" width="26" height="36.11" as="geometry" />
        </mxCell>
        <mxCell id="aPB_nftNZLgnHfdCOMya-10" value="" style="image;sketch=0;aspect=fixed;html=1;points=[];align=center;fontSize=12;image=img/lib/mscae/Data_Lake_Store.svg;" vertex="1" parent="aPB_nftNZLgnHfdCOMya-76">
          <mxGeometry x="71" y="10.959999999999994" width="38.46" height="30" as="geometry" />
        </mxCell>
        <mxCell id="aPB_nftNZLgnHfdCOMya-78" value="MOVE Application" style="verticalLabelPosition=bottom;verticalAlign=top;html=1;shape=mxgraph.basic.rounded_frame;dx=2.4;whiteSpace=wrap;" vertex="1" parent="1">
          <mxGeometry x="927" y="354" width="59" height="70" as="geometry" />
        </mxCell>
        <mxCell id="aPB_nftNZLgnHfdCOMya-79" value="" style="group" vertex="1" connectable="0" parent="1">
          <mxGeometry x="933.5" y="358.17" width="38" height="36.93" as="geometry" />
        </mxCell>
        <mxCell id="aPB_nftNZLgnHfdCOMya-80" value="" style="verticalLabelPosition=bottom;verticalAlign=top;html=1;shape=mxgraph.basic.frame_corner;dx=4.27;whiteSpace=wrap;rotation=-180;fillColor=#FF8000;strokeColor=none;" vertex="1" parent="aPB_nftNZLgnHfdCOMya-79">
          <mxGeometry x="-2.9999999999998224" y="-4.19845491705928e-14" width="17.137254901960723" height="17.233999999999998" as="geometry" />
        </mxCell>
        <mxCell id="aPB_nftNZLgnHfdCOMya-81" value="" style="verticalLabelPosition=bottom;verticalAlign=top;html=1;shape=mxgraph.basic.frame_corner;dx=3.73;whiteSpace=wrap;rotation=0;fillColor=#FF8000;strokeColor=none;" vertex="1" parent="aPB_nftNZLgnHfdCOMya-79">
          <mxGeometry x="-2.6274509803920525" y="19.344285714285682" width="18.25490196078425" height="17.585714285714285" as="geometry" />
        </mxCell>
        <mxCell id="aPB_nftNZLgnHfdCOMya-82" value="" style="verticalLabelPosition=bottom;verticalAlign=top;html=1;shape=mxgraph.basic.frame_corner;dx=3.87;whiteSpace=wrap;rotation=0;fillColor=#FF8000;strokeColor=none;" vertex="1" parent="aPB_nftNZLgnHfdCOMya-79">
          <mxGeometry x="16.003911879761255" y="0.7385999999999581" width="18.996088120238767" height="17.201994" as="geometry" />
        </mxCell>
        <mxCell id="aPB_nftNZLgnHfdCOMya-83" value="MOVE Application" style="verticalLabelPosition=bottom;verticalAlign=top;html=1;shape=mxgraph.basic.rounded_frame;dx=2.4;whiteSpace=wrap;" vertex="1" parent="1">
          <mxGeometry x="840" y="325.09999999999997" width="41" height="70" as="geometry" />
        </mxCell>
        <mxCell id="aPB_nftNZLgnHfdCOMya-84" value="" style="group" vertex="1" connectable="0" parent="1">
          <mxGeometry x="846.5" y="329.27" width="38" height="36.93" as="geometry" />
        </mxCell>
        <mxCell id="aPB_nftNZLgnHfdCOMya-85" value="" style="verticalLabelPosition=bottom;verticalAlign=top;html=1;shape=mxgraph.basic.frame_corner;dx=4.27;whiteSpace=wrap;rotation=-180;fillColor=#FF8000;strokeColor=none;" vertex="1" parent="aPB_nftNZLgnHfdCOMya-84">
          <mxGeometry x="-2.9999999999998224" y="-4.19845491705928e-14" width="17.137254901960723" height="17.233999999999998" as="geometry" />
        </mxCell>
        <mxCell id="aPB_nftNZLgnHfdCOMya-86" value="" style="verticalLabelPosition=bottom;verticalAlign=top;html=1;shape=mxgraph.basic.frame_corner;dx=3.73;whiteSpace=wrap;rotation=0;fillColor=#FF8000;strokeColor=none;" vertex="1" parent="aPB_nftNZLgnHfdCOMya-84">
          <mxGeometry x="-2.6274509803920525" y="19.344285714285682" width="18.25490196078425" height="17.585714285714285" as="geometry" />
        </mxCell>
        <mxCell id="aPB_nftNZLgnHfdCOMya-87" value="" style="verticalLabelPosition=bottom;verticalAlign=top;html=1;shape=mxgraph.basic.frame_corner;dx=3.87;whiteSpace=wrap;rotation=0;fillColor=#FF8000;strokeColor=none;" vertex="1" parent="aPB_nftNZLgnHfdCOMya-84">
          <mxGeometry x="16.003911879761255" y="0.7385999999999581" width="18.996088120238767" height="17.201994" as="geometry" />
        </mxCell>
        <mxCell id="aPB_nftNZLgnHfdCOMya-88" value="" style="image;sketch=0;aspect=fixed;html=1;points=[];align=center;fontSize=12;image=img/lib/mscae/Data_Lake_Analytics.svg;" vertex="1" parent="1">
          <mxGeometry x="948" y="390" width="29" height="29" as="geometry" />
        </mxCell>
        <mxCell id="aPB_nftNZLgnHfdCOMya-89" value="" style="image;sketch=0;aspect=fixed;html=1;points=[];align=center;fontSize=12;image=img/lib/mscae/Data_Lake_Analytics.svg;" vertex="1" parent="1">
          <mxGeometry x="850" y="362.14" width="29" height="29" as="geometry" />
        </mxCell>
        <mxCell id="aPB_nftNZLgnHfdCOMya-90" value="" style="image;sketch=0;aspect=fixed;html=1;points=[];align=center;fontSize=12;image=img/lib/mscae/Input.svg;" vertex="1" parent="1">
          <mxGeometry x="1419" y="341.07" width="19" height="17.1" as="geometry" />
        </mxCell>
        <mxCell id="aPB_nftNZLgnHfdCOMya-92" value="" style="image;sketch=0;aspect=fixed;html=1;points=[];align=center;fontSize=12;image=img/lib/mscae/Time_Series_Insights_environments.svg;" vertex="1" parent="1">
          <mxGeometry x="1016" y="140" width="39" height="39.8" as="geometry" />
        </mxCell>
        <mxCell id="aPB_nftNZLgnHfdCOMya-97" value="" style="image;sketch=0;aspect=fixed;html=1;points=[];align=center;fontSize=12;image=img/lib/mscae/App_Services.svg;" vertex="1" parent="1">
          <mxGeometry x="965.4" y="149.79999999999998" width="30" height="30" as="geometry" />
        </mxCell>
        <mxCell id="aPB_nftNZLgnHfdCOMya-98" value="" style="shape=mxgraph.signs.tech.rss;html=1;pointerEvents=1;fillColor=#000000;strokeColor=none;verticalLabelPosition=bottom;verticalAlign=top;align=center;sketch=0;" vertex="1" parent="1">
          <mxGeometry x="1453.65" y="335" width="18" height="19" as="geometry" />
        </mxCell>
        <mxCell id="aPB_nftNZLgnHfdCOMya-112" value="" style="sketch=0;aspect=fixed;pointerEvents=1;shadow=0;dashed=0;html=1;strokeColor=none;labelPosition=center;verticalLabelPosition=bottom;verticalAlign=top;align=center;fillColor=#00188D;shape=mxgraph.mscae.enterprise.connectors" vertex="1" parent="1">
          <mxGeometry x="1449" y="376.53" width="27.31" height="18.57" as="geometry" />
        </mxCell>
        <mxCell id="aPB_nftNZLgnHfdCOMya-113" value="OBD2" style="ellipse;whiteSpace=wrap;html=1;" vertex="1" parent="1">
          <mxGeometry x="1476.31" y="377.55" width="52.6" height="16.53" as="geometry" />
        </mxCell>
        <mxCell id="aPB_nftNZLgnHfdCOMya-114" value="" style="shape=mxgraph.signs.transportation.truck_1;html=1;pointerEvents=1;fillColor=#fff2cc;strokeColor=#d6b656;verticalLabelPosition=bottom;verticalAlign=top;align=center;sketch=0;" vertex="1" parent="1">
          <mxGeometry x="1720" y="316.55" width="242.41" height="124.88" as="geometry" />
        </mxCell>
        <mxCell id="aPB_nftNZLgnHfdCOMya-116" value="" style="shape=trapezoid;perimeter=trapezoidPerimeter;whiteSpace=wrap;html=1;fixedSize=1;flipH=0;flipV=1;" vertex="1" parent="1">
          <mxGeometry x="1700" y="325" width="70" height="10" as="geometry" />
        </mxCell>
        <mxCell id="aPB_nftNZLgnHfdCOMya-117" value="" style="verticalLabelPosition=bottom;verticalAlign=top;html=1;shape=mxgraph.basic.obtuse_triangle;dx=0.26;perimeterSpacing=0;flipV=0;flipH=1;" vertex="1" parent="1">
          <mxGeometry x="1760" y="320" width="59.19" height="15" as="geometry" />
        </mxCell>
        <mxCell id="aPB_nftNZLgnHfdCOMya-118" value="" style="fontColor=#0066CC;verticalAlign=top;verticalLabelPosition=bottom;labelPosition=center;align=center;html=1;outlineConnect=0;fillColor=#CCCCCC;strokeColor=#6881B3;gradientColor=none;gradientDirection=north;strokeWidth=2;shape=mxgraph.networks.radio_tower;" vertex="1" parent="1">
          <mxGeometry x="1880" y="160" width="55" height="100" as="geometry" />
        </mxCell>
        <mxCell id="aPB_nftNZLgnHfdCOMya-119" value="" style="fontColor=#0066CC;verticalAlign=top;verticalLabelPosition=bottom;labelPosition=center;align=center;html=1;outlineConnect=0;fillColor=#CCCCCC;strokeColor=#6881B3;gradientColor=none;gradientDirection=north;strokeWidth=2;shape=mxgraph.networks.satellite_dish;" vertex="1" parent="1">
          <mxGeometry x="1338.28" y="-50" width="90" height="100" as="geometry" />
        </mxCell>
        <mxCell id="aPB_nftNZLgnHfdCOMya-121" value="" style="html=1;outlineConnect=0;fillColor=#CCCCCC;strokeColor=#6881B3;gradientColor=none;gradientDirection=north;strokeWidth=2;shape=mxgraph.networks.comm_link_edge;html=1;rounded=0;" edge="1" parent="1">
          <mxGeometry width="100" height="100" relative="1" as="geometry">
            <mxPoint x="1709" y="320" as="sourcePoint" />
            <mxPoint x="1580" y="160" as="targetPoint" />
          </mxGeometry>
        </mxCell>
        <mxCell id="aPB_nftNZLgnHfdCOMya-122" value="" style="html=1;outlineConnect=0;fillColor=#CCCCCC;strokeColor=#6881B3;gradientColor=none;gradientDirection=north;strokeWidth=2;shape=mxgraph.networks.comm_link_edge;html=1;rounded=0;" edge="1" parent="1">
          <mxGeometry width="100" height="100" relative="1" as="geometry">
            <mxPoint x="1790" y="310" as="sourcePoint" />
            <mxPoint x="1870" y="180" as="targetPoint" />
          </mxGeometry>
        </mxCell>
        <mxCell id="aPB_nftNZLgnHfdCOMya-123" value="" style="image;sketch=0;aspect=fixed;html=1;points=[];align=center;fontSize=12;image=img/lib/mscae/Local_Network_Gateways.svg;" vertex="1" parent="1">
          <mxGeometry x="1802.2" y="370.42857142857144" width="17.3992" height="17.3992" as="geometry" />
        </mxCell>
        <mxCell id="aPB_nftNZLgnHfdCOMya-124" value="&lt;font style=&quot;font-size: 7px;&quot;&gt;MOVE Gateway&lt;/font&gt;" style="verticalLabelPosition=bottom;verticalAlign=top;html=1;shape=mxgraph.basic.rounded_frame;dx=3.75;whiteSpace=wrap;spacing=-7;" vertex="1" parent="1">
          <mxGeometry x="1780" y="365" width="60" height="40" as="geometry" />
        </mxCell>
        <mxCell id="aPB_nftNZLgnHfdCOMya-125" value="" style="image;sketch=0;aspect=fixed;html=1;points=[];align=center;fontSize=12;image=img/lib/mscae/Event_Hubs.svg;" vertex="1" parent="1">
          <mxGeometry x="1788.4" y="387" width="10.8808" height="11.334399999999999" as="geometry" />
        </mxCell>
        <mxCell id="aPB_nftNZLgnHfdCOMya-126" value="" style="image;sketch=0;aspect=fixed;html=1;points=[];align=center;fontSize=12;image=img/lib/mscae/Analysis_Services.svg;" vertex="1" parent="1">
          <mxGeometry x="1817.2" y="386.42857142857144" width="14.532" height="11.334399999999999" as="geometry" />
        </mxCell>
        <mxCell id="aPB_nftNZLgnHfdCOMya-127" value="" style="group" vertex="1" connectable="0" parent="1">
          <mxGeometry x="1786" y="369.2857142857143" width="22.799999999999997" height="21.102857142857147" as="geometry" />
        </mxCell>
        <mxCell id="aPB_nftNZLgnHfdCOMya-128" value="" style="verticalLabelPosition=bottom;verticalAlign=top;html=1;shape=mxgraph.basic.frame_corner;dx=2.43;whiteSpace=wrap;rotation=-180;fillColor=#FF8000;strokeColor=none;" vertex="1" parent="aPB_nftNZLgnHfdCOMya-127">
          <mxGeometry x="-1.7999999999998935" y="-2.3991170954624463e-14" width="10.282352941176434" height="9.848" as="geometry" />
        </mxCell>
        <mxCell id="aPB_nftNZLgnHfdCOMya-129" value="" style="verticalLabelPosition=bottom;verticalAlign=top;html=1;shape=mxgraph.basic.frame_corner;dx=2.35;whiteSpace=wrap;rotation=0;fillColor=#FF8000;strokeColor=none;" vertex="1" parent="aPB_nftNZLgnHfdCOMya-127">
          <mxGeometry x="-1.5764705882352312" y="11.053877551020392" width="10.95294117647055" height="10.048979591836737" as="geometry" />
        </mxCell>
        <mxCell id="aPB_nftNZLgnHfdCOMya-130" value="" style="verticalLabelPosition=bottom;verticalAlign=top;html=1;shape=mxgraph.basic.frame_corner;dx=2.49;whiteSpace=wrap;rotation=0;fillColor=#FF8000;strokeColor=none;" vertex="1" parent="aPB_nftNZLgnHfdCOMya-127">
          <mxGeometry x="9.602347127856753" y="0.422057142857119" width="11.39765287214326" height="9.829710857142858" as="geometry" />
        </mxCell>
      </root>
    </mxGraphModel>
  </diagram>
  <diagram id="x4dVAhztQrPpdDIXaHfp" name="Page-2">
    <mxGraphModel dx="157" dy="1836" grid="1" gridSize="10" guides="1" tooltips="1" connect="1" arrows="1" fold="1" page="1" pageScale="1" pageWidth="827" pageHeight="1169" math="0" shadow="0">
      <root>
        <mxCell id="0" />
        <mxCell id="1" parent="0" />
        <mxCell id="dTfIBp8ciSvwu0CNRg2p-95" value="" style="shape=mxgraph.signs.transportation.truck_1;html=1;pointerEvents=1;fillColor=#fff2cc;strokeColor=#d6b656;verticalLabelPosition=bottom;verticalAlign=top;align=center;sketch=0;" vertex="1" parent="1">
          <mxGeometry x="1760" y="326.56" width="242.41" height="124.88" as="geometry" />
        </mxCell>
        <mxCell id="dTfIBp8ciSvwu0CNRg2p-94" value="" style="shape=mxgraph.signs.transportation.truck_1;html=1;pointerEvents=1;fillColor=#fff2cc;strokeColor=#d6b656;verticalLabelPosition=bottom;verticalAlign=top;align=center;sketch=0;" vertex="1" parent="1">
          <mxGeometry x="1740" y="320.82" width="242.41" height="124.88" as="geometry" />
        </mxCell>
        <mxCell id="dTfIBp8ciSvwu0CNRg2p-93" value="" style="shape=mxgraph.signs.transportation.car_3;html=1;pointerEvents=1;fillColor=#fff2cc;strokeColor=#d6b656;verticalLabelPosition=bottom;verticalAlign=top;align=center;sketch=0;flipH=1;movable=1;resizable=1;rotatable=1;deletable=1;editable=1;locked=0;connectable=1;" vertex="1" parent="1">
          <mxGeometry x="1370" y="320.82" width="338.68" height="130" as="geometry" />
        </mxCell>
        <mxCell id="dTfIBp8ciSvwu0CNRg2p-92" value="" style="shape=mxgraph.signs.transportation.car_3;html=1;pointerEvents=1;fillColor=#fff2cc;strokeColor=#d6b656;verticalLabelPosition=bottom;verticalAlign=top;align=center;sketch=0;flipH=1;movable=1;resizable=1;rotatable=1;deletable=1;editable=1;locked=0;connectable=1;" vertex="1" parent="1">
          <mxGeometry x="1338.28" y="320" width="338.68" height="130" as="geometry" />
        </mxCell>
        <mxCell id="dTfIBp8ciSvwu0CNRg2p-2" value="" style="shape=mxgraph.signs.transportation.car_3;html=1;pointerEvents=1;fillColor=#fff2cc;strokeColor=#d6b656;verticalLabelPosition=bottom;verticalAlign=top;align=center;sketch=0;flipH=1;movable=1;resizable=1;rotatable=1;deletable=1;editable=1;locked=0;connectable=1;" vertex="1" parent="1">
          <mxGeometry x="1304" y="320" width="338.68" height="130" as="geometry" />
        </mxCell>
        <mxCell id="dTfIBp8ciSvwu0CNRg2p-3" value="" style="ellipse;shape=cloud;whiteSpace=wrap;html=1;" vertex="1" parent="1">
          <mxGeometry x="829" y="10" width="360" height="230" as="geometry" />
        </mxCell>
        <mxCell id="dTfIBp8ciSvwu0CNRg2p-4" value="" style="fontColor=#0066CC;verticalAlign=top;verticalLabelPosition=bottom;labelPosition=center;align=center;html=1;outlineConnect=0;fillColor=#CCCCCC;strokeColor=#6881B3;gradientColor=none;gradientDirection=north;strokeWidth=2;shape=mxgraph.networks.satellite;" vertex="1" parent="1">
          <mxGeometry x="1542.68" y="50" width="100" height="100" as="geometry" />
        </mxCell>
        <mxCell id="dTfIBp8ciSvwu0CNRg2p-5" value="" style="fontColor=#0066CC;verticalAlign=top;verticalLabelPosition=bottom;labelPosition=center;align=center;html=1;outlineConnect=0;fillColor=#CCCCCC;strokeColor=#6881B3;gradientColor=none;gradientDirection=north;strokeWidth=2;shape=mxgraph.networks.laptop;" vertex="1" parent="1">
          <mxGeometry x="879" y="340" width="220" height="190" as="geometry" />
        </mxCell>
        <mxCell id="dTfIBp8ciSvwu0CNRg2p-6" value="" style="fontColor=#0066CC;verticalAlign=top;verticalLabelPosition=bottom;labelPosition=center;align=center;html=1;outlineConnect=0;fillColor=#CCCCCC;strokeColor=#6881B3;gradientColor=none;gradientDirection=north;strokeWidth=2;shape=mxgraph.networks.mobile;rotation=-180;" vertex="1" parent="1">
          <mxGeometry x="829" y="311.43" width="71" height="130" as="geometry" />
        </mxCell>
        <mxCell id="dTfIBp8ciSvwu0CNRg2p-7" value="" style="fontColor=#0066CC;verticalAlign=top;verticalLabelPosition=bottom;labelPosition=center;align=center;html=1;outlineConnect=0;fillColor=#CCCCCC;strokeColor=#6881B3;gradientColor=none;gradientDirection=north;strokeWidth=2;shape=mxgraph.networks.radio_tower;" vertex="1" parent="1">
          <mxGeometry x="1240" y="185.83" width="55" height="100" as="geometry" />
        </mxCell>
        <mxCell id="dTfIBp8ciSvwu0CNRg2p-8" value="" style="image;sketch=0;aspect=fixed;html=1;points=[];align=center;fontSize=12;image=img/lib/mscae/Database_General.svg;" vertex="1" parent="1">
          <mxGeometry x="939" y="100" width="30.4" height="40" as="geometry" />
        </mxCell>
        <mxCell id="dTfIBp8ciSvwu0CNRg2p-9" value="" style="fontColor=#0066CC;verticalAlign=top;verticalLabelPosition=bottom;labelPosition=center;align=center;html=1;outlineConnect=0;fillColor=#CCCCCC;strokeColor=#6881B3;gradientColor=none;gradientDirection=north;strokeWidth=2;shape=mxgraph.networks.mobile;rotation=-180;" vertex="1" parent="1">
          <mxGeometry x="1489" y="333" width="20" height="40" as="geometry" />
        </mxCell>
        <mxCell id="dTfIBp8ciSvwu0CNRg2p-10" value="" style="shape=trapezoid;perimeter=trapezoidPerimeter;whiteSpace=wrap;html=1;fixedSize=1;flipH=0;flipV=1;" vertex="1" parent="1">
          <mxGeometry x="1419" y="305" width="70" height="10" as="geometry" />
        </mxCell>
        <mxCell id="dTfIBp8ciSvwu0CNRg2p-11" value="" style="verticalLabelPosition=bottom;verticalAlign=top;html=1;shape=mxgraph.basic.obtuse_triangle;dx=0.26;perimeterSpacing=0;" vertex="1" parent="1">
          <mxGeometry x="1359" y="305" width="59.19" height="15" as="geometry" />
        </mxCell>
        <mxCell id="dTfIBp8ciSvwu0CNRg2p-12" value="" style="group;spacing=0;" vertex="1" connectable="0" parent="1">
          <mxGeometry x="1349" y="330" width="100" height="70" as="geometry" />
        </mxCell>
        <mxCell id="dTfIBp8ciSvwu0CNRg2p-13" value="" style="image;sketch=0;aspect=fixed;html=1;points=[];align=center;fontSize=12;image=img/lib/mscae/Local_Network_Gateways.svg;" vertex="1" parent="dTfIBp8ciSvwu0CNRg2p-12">
          <mxGeometry x="37" y="9.5" width="31.07" height="31.07" as="geometry" />
        </mxCell>
        <mxCell id="dTfIBp8ciSvwu0CNRg2p-14" value="MOVE Gateway" style="verticalLabelPosition=bottom;verticalAlign=top;html=1;shape=mxgraph.basic.rounded_frame;dx=6.4;whiteSpace=wrap;" vertex="1" parent="dTfIBp8ciSvwu0CNRg2p-12">
          <mxGeometry width="100" height="70" as="geometry" />
        </mxCell>
        <mxCell id="dTfIBp8ciSvwu0CNRg2p-15" value="" style="image;sketch=0;aspect=fixed;html=1;points=[];align=center;fontSize=12;image=img/lib/mscae/Event_Hubs.svg;" vertex="1" parent="dTfIBp8ciSvwu0CNRg2p-12">
          <mxGeometry x="14" y="38.5" width="19.43" height="20.24" as="geometry" />
        </mxCell>
        <mxCell id="dTfIBp8ciSvwu0CNRg2p-16" value="" style="image;sketch=0;aspect=fixed;html=1;points=[];align=center;fontSize=12;image=img/lib/mscae/Analysis_Services.svg;" vertex="1" parent="dTfIBp8ciSvwu0CNRg2p-12">
          <mxGeometry x="62" y="37.5" width="25.95" height="20.24" as="geometry" />
        </mxCell>
        <mxCell id="dTfIBp8ciSvwu0CNRg2p-17" value="" style="group" vertex="1" connectable="0" parent="dTfIBp8ciSvwu0CNRg2p-12">
          <mxGeometry x="10" y="7.5" width="38" height="36.93" as="geometry" />
        </mxCell>
        <mxCell id="dTfIBp8ciSvwu0CNRg2p-18" value="" style="verticalLabelPosition=bottom;verticalAlign=top;html=1;shape=mxgraph.basic.frame_corner;dx=4.27;whiteSpace=wrap;rotation=-180;fillColor=#FF8000;strokeColor=none;" vertex="1" parent="dTfIBp8ciSvwu0CNRg2p-17">
          <mxGeometry x="-2.9999999999998224" y="-4.19845491705928e-14" width="17.137254901960723" height="17.233999999999998" as="geometry" />
        </mxCell>
        <mxCell id="dTfIBp8ciSvwu0CNRg2p-19" value="" style="verticalLabelPosition=bottom;verticalAlign=top;html=1;shape=mxgraph.basic.frame_corner;dx=3.73;whiteSpace=wrap;rotation=0;fillColor=#FF8000;strokeColor=none;" vertex="1" parent="dTfIBp8ciSvwu0CNRg2p-17">
          <mxGeometry x="-2.6274509803920525" y="19.344285714285682" width="18.25490196078425" height="17.585714285714285" as="geometry" />
        </mxCell>
        <mxCell id="dTfIBp8ciSvwu0CNRg2p-20" value="" style="verticalLabelPosition=bottom;verticalAlign=top;html=1;shape=mxgraph.basic.frame_corner;dx=3.87;whiteSpace=wrap;rotation=0;fillColor=#FF8000;strokeColor=none;" vertex="1" parent="dTfIBp8ciSvwu0CNRg2p-17">
          <mxGeometry x="16.003911879761255" y="0.7385999999999581" width="18.996088120238767" height="17.201994" as="geometry" />
        </mxCell>
        <mxCell id="dTfIBp8ciSvwu0CNRg2p-21" value="" style="image;sketch=0;aspect=fixed;html=1;points=[];align=center;fontSize=12;image=img/lib/mscae/Device_Provisioning_Services.svg;" vertex="1" parent="dTfIBp8ciSvwu0CNRg2p-12">
          <mxGeometry x="41" y="44.43000000000001" width="18" height="18.75" as="geometry" />
        </mxCell>
        <mxCell id="dTfIBp8ciSvwu0CNRg2p-22" value="" style="image;sketch=0;aspect=fixed;html=1;points=[];align=center;fontSize=12;image=img/lib/mscae/Event_Hub_Clusters.svg;" vertex="1" parent="1">
          <mxGeometry x="1059" y="130.26" width="50" height="48" as="geometry" />
        </mxCell>
        <mxCell id="dTfIBp8ciSvwu0CNRg2p-40" value="" style="html=1;outlineConnect=0;fillColor=#CCCCCC;strokeColor=#6881B3;gradientColor=none;gradientDirection=north;strokeWidth=2;shape=mxgraph.networks.comm_link_edge;html=1;rounded=0;" edge="1" parent="1">
          <mxGeometry width="100" height="100" relative="1" as="geometry">
            <mxPoint x="1359" y="304.29" as="sourcePoint" />
            <mxPoint x="1299" y="220" as="targetPoint" />
          </mxGeometry>
        </mxCell>
        <mxCell id="dTfIBp8ciSvwu0CNRg2p-41" value="" style="html=1;outlineConnect=0;fillColor=#CCCCCC;strokeColor=#6881B3;gradientColor=none;gradientDirection=north;strokeWidth=2;shape=mxgraph.networks.comm_link_edge;html=1;rounded=0;" edge="1" parent="1">
          <mxGeometry width="100" height="100" relative="1" as="geometry">
            <mxPoint x="1429" y="305" as="sourcePoint" />
            <mxPoint x="1539" y="140" as="targetPoint" />
          </mxGeometry>
        </mxCell>
        <mxCell id="dTfIBp8ciSvwu0CNRg2p-45" value="" style="endArrow=none;html=1;rounded=0;entryX=0.55;entryY=0.95;entryDx=0;entryDy=0;entryPerimeter=0;exitX=0.5;exitY=1;exitDx=0;exitDy=0;exitPerimeter=0;" edge="1" parent="1" source="dTfIBp8ciSvwu0CNRg2p-7" target="dTfIBp8ciSvwu0CNRg2p-3">
          <mxGeometry width="50" height="50" relative="1" as="geometry">
            <mxPoint x="1279" y="210" as="sourcePoint" />
            <mxPoint x="1329" y="160" as="targetPoint" />
            <Array as="points">
              <mxPoint x="1268" y="300" />
              <mxPoint x="1027" y="300" />
            </Array>
          </mxGeometry>
        </mxCell>
        <mxCell id="dTfIBp8ciSvwu0CNRg2p-46" value="" style="endArrow=none;html=1;rounded=0;entryX=0.58;entryY=0.3;entryDx=0;entryDy=0;entryPerimeter=0;exitX=0.4;exitY=0.1;exitDx=0;exitDy=0;exitPerimeter=0;" edge="1" parent="1" source="dTfIBp8ciSvwu0CNRg2p-3" target="dTfIBp8ciSvwu0CNRg2p-4">
          <mxGeometry width="50" height="50" relative="1" as="geometry">
            <mxPoint x="1279" y="210" as="sourcePoint" />
            <mxPoint x="1329" y="160" as="targetPoint" />
            <Array as="points">
              <mxPoint x="973" />
              <mxPoint x="1599" />
            </Array>
          </mxGeometry>
        </mxCell>
        <mxCell id="dTfIBp8ciSvwu0CNRg2p-47" value="" style="endArrow=classic;startArrow=classic;html=1;rounded=0;entryX=0.31;entryY=0.8;entryDx=0;entryDy=0;entryPerimeter=0;" edge="1" parent="1" target="dTfIBp8ciSvwu0CNRg2p-3">
          <mxGeometry width="50" height="50" relative="1" as="geometry">
            <mxPoint x="869" y="305" as="sourcePoint" />
            <mxPoint x="919" y="255" as="targetPoint" />
          </mxGeometry>
        </mxCell>
        <mxCell id="dTfIBp8ciSvwu0CNRg2p-48" value="" style="endArrow=classic;startArrow=classic;html=1;rounded=0;entryX=0.487;entryY=0.957;entryDx=0;entryDy=0;entryPerimeter=0;" edge="1" parent="1" source="dTfIBp8ciSvwu0CNRg2p-5" target="dTfIBp8ciSvwu0CNRg2p-3">
          <mxGeometry width="50" height="50" relative="1" as="geometry">
            <mxPoint x="959" y="250" as="sourcePoint" />
            <mxPoint x="1009" y="200" as="targetPoint" />
          </mxGeometry>
        </mxCell>
        <mxCell id="dTfIBp8ciSvwu0CNRg2p-49" value="" style="image;sketch=0;aspect=fixed;html=1;points=[];align=center;fontSize=12;image=img/lib/mscae/Bot_Services.svg;" vertex="1" parent="1">
          <mxGeometry x="1059" y="70" width="39" height="39" as="geometry" />
        </mxCell>
        <mxCell id="dTfIBp8ciSvwu0CNRg2p-50" value="" style="group" vertex="1" connectable="0" parent="1">
          <mxGeometry x="929" y="60" width="190" height="130" as="geometry" />
        </mxCell>
        <mxCell id="dTfIBp8ciSvwu0CNRg2p-51" value="MOVE Cloud Services" style="verticalLabelPosition=bottom;verticalAlign=top;html=1;shape=mxgraph.basic.rounded_frame;dx=6.4;whiteSpace=wrap;" vertex="1" parent="dTfIBp8ciSvwu0CNRg2p-50">
          <mxGeometry width="190" height="130" as="geometry" />
        </mxCell>
        <mxCell id="dTfIBp8ciSvwu0CNRg2p-52" value="" style="group" vertex="1" connectable="0" parent="dTfIBp8ciSvwu0CNRg2p-50">
          <mxGeometry x="10" y="7.5" width="38" height="36.93" as="geometry" />
        </mxCell>
        <mxCell id="dTfIBp8ciSvwu0CNRg2p-53" value="" style="verticalLabelPosition=bottom;verticalAlign=top;html=1;shape=mxgraph.basic.frame_corner;dx=4.27;whiteSpace=wrap;rotation=-180;fillColor=#FF8000;strokeColor=none;" vertex="1" parent="dTfIBp8ciSvwu0CNRg2p-52">
          <mxGeometry x="-2.9999999999998224" y="-4.19845491705928e-14" width="17.137254901960723" height="17.233999999999998" as="geometry" />
        </mxCell>
        <mxCell id="dTfIBp8ciSvwu0CNRg2p-54" value="" style="verticalLabelPosition=bottom;verticalAlign=top;html=1;shape=mxgraph.basic.frame_corner;dx=3.73;whiteSpace=wrap;rotation=0;fillColor=#FF8000;strokeColor=none;" vertex="1" parent="dTfIBp8ciSvwu0CNRg2p-52">
          <mxGeometry x="-2.6274509803920525" y="19.344285714285682" width="18.25490196078425" height="17.585714285714285" as="geometry" />
        </mxCell>
        <mxCell id="dTfIBp8ciSvwu0CNRg2p-55" value="" style="verticalLabelPosition=bottom;verticalAlign=top;html=1;shape=mxgraph.basic.frame_corner;dx=3.87;whiteSpace=wrap;rotation=0;fillColor=#FF8000;strokeColor=none;" vertex="1" parent="dTfIBp8ciSvwu0CNRg2p-52">
          <mxGeometry x="16.003911879761255" y="0.7385999999999581" width="18.996088120238767" height="17.201994" as="geometry" />
        </mxCell>
        <mxCell id="dTfIBp8ciSvwu0CNRg2p-56" value="" style="image;sketch=0;aspect=fixed;html=1;points=[];align=center;fontSize=12;image=img/lib/mscae/Machine_Learning_Service_Workspaces.svg;" vertex="1" parent="dTfIBp8ciSvwu0CNRg2p-50">
          <mxGeometry x="48" y="44.89" width="37" height="40.22" as="geometry" />
        </mxCell>
        <mxCell id="dTfIBp8ciSvwu0CNRg2p-57" value="" style="image;sketch=0;aspect=fixed;html=1;points=[];align=center;fontSize=12;image=img/lib/mscae/Security_Center.svg;" vertex="1" parent="dTfIBp8ciSvwu0CNRg2p-50">
          <mxGeometry x="101" y="41.43" width="26" height="36.11" as="geometry" />
        </mxCell>
        <mxCell id="dTfIBp8ciSvwu0CNRg2p-58" value="" style="image;sketch=0;aspect=fixed;html=1;points=[];align=center;fontSize=12;image=img/lib/mscae/Data_Lake_Store.svg;" vertex="1" parent="dTfIBp8ciSvwu0CNRg2p-50">
          <mxGeometry x="71" y="10.959999999999994" width="38.46" height="30" as="geometry" />
        </mxCell>
        <mxCell id="dTfIBp8ciSvwu0CNRg2p-59" value="MOVE Application" style="verticalLabelPosition=bottom;verticalAlign=top;html=1;shape=mxgraph.basic.rounded_frame;dx=2.4;whiteSpace=wrap;" vertex="1" parent="1">
          <mxGeometry x="927" y="354" width="59" height="70" as="geometry" />
        </mxCell>
        <mxCell id="dTfIBp8ciSvwu0CNRg2p-60" value="" style="group" vertex="1" connectable="0" parent="1">
          <mxGeometry x="933.5" y="358.17" width="38" height="36.93" as="geometry" />
        </mxCell>
        <mxCell id="dTfIBp8ciSvwu0CNRg2p-61" value="" style="verticalLabelPosition=bottom;verticalAlign=top;html=1;shape=mxgraph.basic.frame_corner;dx=4.27;whiteSpace=wrap;rotation=-180;fillColor=#FF8000;strokeColor=none;" vertex="1" parent="dTfIBp8ciSvwu0CNRg2p-60">
          <mxGeometry x="-2.9999999999998224" y="-4.19845491705928e-14" width="17.137254901960723" height="17.233999999999998" as="geometry" />
        </mxCell>
        <mxCell id="dTfIBp8ciSvwu0CNRg2p-62" value="" style="verticalLabelPosition=bottom;verticalAlign=top;html=1;shape=mxgraph.basic.frame_corner;dx=3.73;whiteSpace=wrap;rotation=0;fillColor=#FF8000;strokeColor=none;" vertex="1" parent="dTfIBp8ciSvwu0CNRg2p-60">
          <mxGeometry x="-2.6274509803920525" y="19.344285714285682" width="18.25490196078425" height="17.585714285714285" as="geometry" />
        </mxCell>
        <mxCell id="dTfIBp8ciSvwu0CNRg2p-63" value="" style="verticalLabelPosition=bottom;verticalAlign=top;html=1;shape=mxgraph.basic.frame_corner;dx=3.87;whiteSpace=wrap;rotation=0;fillColor=#FF8000;strokeColor=none;" vertex="1" parent="dTfIBp8ciSvwu0CNRg2p-60">
          <mxGeometry x="16.003911879761255" y="0.7385999999999581" width="18.996088120238767" height="17.201994" as="geometry" />
        </mxCell>
        <mxCell id="dTfIBp8ciSvwu0CNRg2p-64" value="MOVE Application" style="verticalLabelPosition=bottom;verticalAlign=top;html=1;shape=mxgraph.basic.rounded_frame;dx=2.4;whiteSpace=wrap;" vertex="1" parent="1">
          <mxGeometry x="840" y="325.09999999999997" width="41" height="70" as="geometry" />
        </mxCell>
        <mxCell id="dTfIBp8ciSvwu0CNRg2p-65" value="" style="group" vertex="1" connectable="0" parent="1">
          <mxGeometry x="846.5" y="329.27" width="38" height="36.93" as="geometry" />
        </mxCell>
        <mxCell id="dTfIBp8ciSvwu0CNRg2p-66" value="" style="verticalLabelPosition=bottom;verticalAlign=top;html=1;shape=mxgraph.basic.frame_corner;dx=4.27;whiteSpace=wrap;rotation=-180;fillColor=#FF8000;strokeColor=none;" vertex="1" parent="dTfIBp8ciSvwu0CNRg2p-65">
          <mxGeometry x="-2.9999999999998224" y="-4.19845491705928e-14" width="17.137254901960723" height="17.233999999999998" as="geometry" />
        </mxCell>
        <mxCell id="dTfIBp8ciSvwu0CNRg2p-67" value="" style="verticalLabelPosition=bottom;verticalAlign=top;html=1;shape=mxgraph.basic.frame_corner;dx=3.73;whiteSpace=wrap;rotation=0;fillColor=#FF8000;strokeColor=none;" vertex="1" parent="dTfIBp8ciSvwu0CNRg2p-65">
          <mxGeometry x="-2.6274509803920525" y="19.344285714285682" width="18.25490196078425" height="17.585714285714285" as="geometry" />
        </mxCell>
        <mxCell id="dTfIBp8ciSvwu0CNRg2p-68" value="" style="verticalLabelPosition=bottom;verticalAlign=top;html=1;shape=mxgraph.basic.frame_corner;dx=3.87;whiteSpace=wrap;rotation=0;fillColor=#FF8000;strokeColor=none;" vertex="1" parent="dTfIBp8ciSvwu0CNRg2p-65">
          <mxGeometry x="16.003911879761255" y="0.7385999999999581" width="18.996088120238767" height="17.201994" as="geometry" />
        </mxCell>
        <mxCell id="dTfIBp8ciSvwu0CNRg2p-69" value="" style="image;sketch=0;aspect=fixed;html=1;points=[];align=center;fontSize=12;image=img/lib/mscae/Data_Lake_Analytics.svg;" vertex="1" parent="1">
          <mxGeometry x="948" y="390" width="29" height="29" as="geometry" />
        </mxCell>
        <mxCell id="dTfIBp8ciSvwu0CNRg2p-70" value="" style="image;sketch=0;aspect=fixed;html=1;points=[];align=center;fontSize=12;image=img/lib/mscae/Data_Lake_Analytics.svg;" vertex="1" parent="1">
          <mxGeometry x="850" y="362.14" width="29" height="29" as="geometry" />
        </mxCell>
        <mxCell id="dTfIBp8ciSvwu0CNRg2p-71" value="" style="image;sketch=0;aspect=fixed;html=1;points=[];align=center;fontSize=12;image=img/lib/mscae/Input.svg;" vertex="1" parent="1">
          <mxGeometry x="1419" y="341.07" width="19" height="17.1" as="geometry" />
        </mxCell>
        <mxCell id="dTfIBp8ciSvwu0CNRg2p-72" value="" style="image;sketch=0;aspect=fixed;html=1;points=[];align=center;fontSize=12;image=img/lib/mscae/Time_Series_Insights_environments.svg;" vertex="1" parent="1">
          <mxGeometry x="1016" y="140" width="39" height="39.8" as="geometry" />
        </mxCell>
        <mxCell id="dTfIBp8ciSvwu0CNRg2p-73" value="" style="image;sketch=0;aspect=fixed;html=1;points=[];align=center;fontSize=12;image=img/lib/mscae/App_Services.svg;" vertex="1" parent="1">
          <mxGeometry x="965.4" y="149.79999999999998" width="30" height="30" as="geometry" />
        </mxCell>
        <mxCell id="dTfIBp8ciSvwu0CNRg2p-74" value="" style="shape=mxgraph.signs.tech.rss;html=1;pointerEvents=1;fillColor=#000000;strokeColor=none;verticalLabelPosition=bottom;verticalAlign=top;align=center;sketch=0;" vertex="1" parent="1">
          <mxGeometry x="1453.65" y="335" width="18" height="19" as="geometry" />
        </mxCell>
        <mxCell id="dTfIBp8ciSvwu0CNRg2p-75" value="" style="sketch=0;aspect=fixed;pointerEvents=1;shadow=0;dashed=0;html=1;strokeColor=none;labelPosition=center;verticalLabelPosition=bottom;verticalAlign=top;align=center;fillColor=#00188D;shape=mxgraph.mscae.enterprise.connectors" vertex="1" parent="1">
          <mxGeometry x="1449" y="376.53" width="27.31" height="18.57" as="geometry" />
        </mxCell>
        <mxCell id="dTfIBp8ciSvwu0CNRg2p-76" value="OBD2" style="ellipse;whiteSpace=wrap;html=1;" vertex="1" parent="1">
          <mxGeometry x="1476.31" y="377.55" width="52.6" height="16.53" as="geometry" />
        </mxCell>
        <mxCell id="dTfIBp8ciSvwu0CNRg2p-77" value="" style="shape=mxgraph.signs.transportation.truck_1;html=1;pointerEvents=1;fillColor=#fff2cc;strokeColor=#d6b656;verticalLabelPosition=bottom;verticalAlign=top;align=center;sketch=0;" vertex="1" parent="1">
          <mxGeometry x="1720" y="316.55" width="242.41" height="124.88" as="geometry" />
        </mxCell>
        <mxCell id="dTfIBp8ciSvwu0CNRg2p-78" value="" style="shape=trapezoid;perimeter=trapezoidPerimeter;whiteSpace=wrap;html=1;fixedSize=1;flipH=0;flipV=1;" vertex="1" parent="1">
          <mxGeometry x="1700" y="325" width="70" height="10" as="geometry" />
        </mxCell>
        <mxCell id="dTfIBp8ciSvwu0CNRg2p-79" value="" style="verticalLabelPosition=bottom;verticalAlign=top;html=1;shape=mxgraph.basic.obtuse_triangle;dx=0.26;perimeterSpacing=0;flipV=0;flipH=1;" vertex="1" parent="1">
          <mxGeometry x="1760" y="320" width="59.19" height="15" as="geometry" />
        </mxCell>
        <mxCell id="dTfIBp8ciSvwu0CNRg2p-80" value="" style="fontColor=#0066CC;verticalAlign=top;verticalLabelPosition=bottom;labelPosition=center;align=center;html=1;outlineConnect=0;fillColor=#CCCCCC;strokeColor=#6881B3;gradientColor=none;gradientDirection=north;strokeWidth=2;shape=mxgraph.networks.radio_tower;" vertex="1" parent="1">
          <mxGeometry x="1880" y="160" width="55" height="100" as="geometry" />
        </mxCell>
        <mxCell id="dTfIBp8ciSvwu0CNRg2p-81" value="" style="fontColor=#0066CC;verticalAlign=top;verticalLabelPosition=bottom;labelPosition=center;align=center;html=1;outlineConnect=0;fillColor=#CCCCCC;strokeColor=#6881B3;gradientColor=none;gradientDirection=north;strokeWidth=2;shape=mxgraph.networks.satellite_dish;" vertex="1" parent="1">
          <mxGeometry x="1338.28" y="-50" width="90" height="100" as="geometry" />
        </mxCell>
        <mxCell id="dTfIBp8ciSvwu0CNRg2p-82" value="" style="html=1;outlineConnect=0;fillColor=#CCCCCC;strokeColor=#6881B3;gradientColor=none;gradientDirection=north;strokeWidth=2;shape=mxgraph.networks.comm_link_edge;html=1;rounded=0;" edge="1" parent="1">
          <mxGeometry width="100" height="100" relative="1" as="geometry">
            <mxPoint x="1709" y="320" as="sourcePoint" />
            <mxPoint x="1580" y="160" as="targetPoint" />
          </mxGeometry>
        </mxCell>
        <mxCell id="dTfIBp8ciSvwu0CNRg2p-83" value="" style="html=1;outlineConnect=0;fillColor=#CCCCCC;strokeColor=#6881B3;gradientColor=none;gradientDirection=north;strokeWidth=2;shape=mxgraph.networks.comm_link_edge;html=1;rounded=0;" edge="1" parent="1">
          <mxGeometry width="100" height="100" relative="1" as="geometry">
            <mxPoint x="1790" y="310" as="sourcePoint" />
            <mxPoint x="1870" y="180" as="targetPoint" />
          </mxGeometry>
        </mxCell>
        <mxCell id="dTfIBp8ciSvwu0CNRg2p-84" value="" style="image;sketch=0;aspect=fixed;html=1;points=[];align=center;fontSize=12;image=img/lib/mscae/Local_Network_Gateways.svg;" vertex="1" parent="1">
          <mxGeometry x="1802.2" y="370.42857142857144" width="17.3992" height="17.3992" as="geometry" />
        </mxCell>
        <mxCell id="dTfIBp8ciSvwu0CNRg2p-85" value="&lt;font style=&quot;font-size: 7px;&quot;&gt;MOVE Gateway&lt;/font&gt;" style="verticalLabelPosition=bottom;verticalAlign=top;html=1;shape=mxgraph.basic.rounded_frame;dx=3.75;whiteSpace=wrap;spacing=-7;" vertex="1" parent="1">
          <mxGeometry x="1780" y="365" width="60" height="40" as="geometry" />
        </mxCell>
        <mxCell id="dTfIBp8ciSvwu0CNRg2p-86" value="" style="image;sketch=0;aspect=fixed;html=1;points=[];align=center;fontSize=12;image=img/lib/mscae/Event_Hubs.svg;" vertex="1" parent="1">
          <mxGeometry x="1788.4" y="387" width="10.8808" height="11.334399999999999" as="geometry" />
        </mxCell>
        <mxCell id="dTfIBp8ciSvwu0CNRg2p-87" value="" style="image;sketch=0;aspect=fixed;html=1;points=[];align=center;fontSize=12;image=img/lib/mscae/Analysis_Services.svg;" vertex="1" parent="1">
          <mxGeometry x="1817.2" y="386.42857142857144" width="14.532" height="11.334399999999999" as="geometry" />
        </mxCell>
        <mxCell id="dTfIBp8ciSvwu0CNRg2p-88" value="" style="group" vertex="1" connectable="0" parent="1">
          <mxGeometry x="1786" y="369.2857142857143" width="22.799999999999997" height="21.102857142857147" as="geometry" />
        </mxCell>
        <mxCell id="dTfIBp8ciSvwu0CNRg2p-89" value="" style="verticalLabelPosition=bottom;verticalAlign=top;html=1;shape=mxgraph.basic.frame_corner;dx=2.43;whiteSpace=wrap;rotation=-180;fillColor=#FF8000;strokeColor=none;" vertex="1" parent="dTfIBp8ciSvwu0CNRg2p-88">
          <mxGeometry x="-1.7999999999998935" y="-2.3991170954624463e-14" width="10.282352941176434" height="9.848" as="geometry" />
        </mxCell>
        <mxCell id="dTfIBp8ciSvwu0CNRg2p-90" value="" style="verticalLabelPosition=bottom;verticalAlign=top;html=1;shape=mxgraph.basic.frame_corner;dx=2.35;whiteSpace=wrap;rotation=0;fillColor=#FF8000;strokeColor=none;" vertex="1" parent="dTfIBp8ciSvwu0CNRg2p-88">
          <mxGeometry x="-1.5764705882352312" y="11.053877551020392" width="10.95294117647055" height="10.048979591836737" as="geometry" />
        </mxCell>
        <mxCell id="dTfIBp8ciSvwu0CNRg2p-91" value="" style="verticalLabelPosition=bottom;verticalAlign=top;html=1;shape=mxgraph.basic.frame_corner;dx=2.49;whiteSpace=wrap;rotation=0;fillColor=#FF8000;strokeColor=none;" vertex="1" parent="dTfIBp8ciSvwu0CNRg2p-88">
          <mxGeometry x="9.602347127856753" y="0.422057142857119" width="11.39765287214326" height="9.829710857142858" as="geometry" />
        </mxCell>
      </root>
    </mxGraphModel>
  </diagram>
</mxfile>
